<?xml version="1.0" standalone="no"?>
<!DOCTYPE svg PUBLIC "-//W3C//DTD SVG 20010904//EN"
 "http://www.w3.org/TR/2001/REC-SVG-20010904/DTD/svg10.dtd">
<svg version="1.0" xmlns="http://www.w3.org/2000/svg"
 width="2362.000000pt" height="2362.000000pt" viewBox="0 0 2362.000000 2362.000000"
 preserveAspectRatio="xMidYMid meet">

<g transform="translate(0.000000,2362.000000) scale(0.100000,-0.100000)"
fill="#000000" stroke="none">
<path d="M14248 14544 c-5 -4 -8 -227 -8 -497 l0 -489 -39 49 c-171 215 -365
301 -655 290 -146 -5 -214 -20 -325 -73 -182 -85 -324 -230 -423 -429 -107
-217 -148 -411 -148 -715 0 -205 12 -314 50 -466 125 -498 452 -737 1005 -737
181 0 303 19 466 73 268 88 437 206 538 374 48 80 97 232 115 357 22 147 23
2002 2 2061 -28 78 -108 159 -186 188 -39 14 -380 27 -392 14z m-423 -1174
c147 -24 276 -125 342 -267 59 -128 76 -235 70 -453 -5 -207 -23 -302 -79
-419 -36 -75 -121 -167 -186 -200 -132 -67 -324 -65 -454 6 -67 36 -150 129
-188 208 -115 241 -114 659 2 877 41 77 116 160 177 196 53 31 157 61 216 61
22 1 67 -4 100 -9z"/>
<path d="M18220 13031 l0 -1511 310 0 310 0 -2 1398 -3 1398 -30 59 c-33 64
-98 122 -163 145 -23 8 -109 15 -229 17 l-193 5 0 -1511z"/>
<path d="M5500 13885 c-225 -41 -467 -148 -589 -260 -68 -61 -133 -170 -170
-279 -59 -179 -61 -212 -61 -1058 l0 -768 305 0 304 0 3 803 3 802 24 59 c87
217 402 297 619 156 77 -49 118 -101 142 -179 19 -61 20 -95 20 -852 l0 -789
305 0 304 0 3 803 3 802 24 59 c32 79 93 138 189 184 67 32 88 37 168 40 139
6 243 -29 334 -114 55 -51 84 -112 99 -205 7 -40 11 -310 11 -709 l0 -645 24
-50 c27 -59 72 -107 130 -138 38 -20 57 -22 244 -25 l203 -3 -4 808 c-3 775
-4 812 -24 898 -57 248 -153 392 -329 496 -306 181 -659 225 -1035 129 -102
-26 -191 -66 -269 -121 l-59 -41 -50 36 c-63 46 -198 110 -276 130 -176 44
-443 58 -595 31z"/>
<path d="M11349 13890 c-260 -41 -537 -170 -654 -303 -58 -66 -118 -181 -145
-277 -48 -171 -50 -216 -50 -1027 l0 -763 305 0 305 0 0 758 c0 481 4 781 11
822 20 128 85 213 205 270 120 58 281 53 407 -12 53 -26 125 -94 147 -138 44
-86 44 -86 49 -810 6 -661 7 -697 25 -734 25 -50 75 -100 129 -128 39 -21 57
-23 245 -26 l203 -3 -4 808 c-3 779 -4 811 -24 898 -51 217 -134 362 -257 450
-124 88 -301 164 -466 200 -87 19 -348 28 -431 15z"/>
<path d="M16540 13894 c-74 -15 -178 -48 -228 -73 -273 -140 -465 -429 -533
-807 -30 -162 -32 -508 -5 -659 102 -564 372 -823 912 -876 333 -32 741 80
981 270 125 99 217 276 260 505 16 80 18 164 18 706 0 604 0 616 -21 661 -28
60 -76 114 -133 147 -45 27 -49 27 -243 30 l-198 4 0 -127 0 -126 -48 63 c-58
76 -160 164 -239 206 -103 54 -191 74 -353 77 -80 2 -156 1 -170 -1z m390
-524 c145 -23 272 -118 335 -252 63 -134 78 -210 79 -413 1 -196 -10 -285 -51
-400 -33 -92 -55 -129 -117 -193 -132 -138 -344 -171 -534 -82 -110 51 -202
169 -247 317 -40 128 -57 375 -35 524 31 218 140 392 286 461 98 46 171 55
284 38z"/>
<path d="M8310 13138 c0 -711 5 -857 36 -1008 35 -168 122 -326 223 -406 123
-97 357 -194 553 -230 121 -22 314 -22 438 0 168 30 371 108 490 189 163 111
262 325 289 624 7 75 11 394 11 832 l0 711 -193 0 -194 0 -62 -31 c-41 -21
-73 -46 -96 -76 -66 -86 -65 -76 -65 -803 0 -708 -1 -725 -54 -808 -77 -123
-262 -197 -423 -172 -118 19 -220 81 -278 168 -55 83 -55 90 -55 939 l0 783
-310 0 -310 0 0 -712z"/>
<path d="M15010 12686 l0 -1166 310 0 310 0 -2 1053 c-3 1051 -3 1052 -24
1098 -29 63 -83 120 -141 149 -46 24 -58 25 -250 28 l-203 3 0 -1165z"/>
<path d="M6050 10175 l0 -695 280 0 280 0 0 55 0 55 -220 0 -220 0 0 640 0
640 -60 0 -60 0 0 -695z"/>
<path d="M8560 10785 l0 -85 65 0 65 0 0 85 0 85 -65 0 -65 0 0 -85z"/>
<path d="M10160 10785 l0 -85 70 0 70 0 0 85 0 85 -70 0 -70 0 0 -85z"/>
<path d="M12760 10826 c-290 -65 -465 -246 -510 -528 -18 -113 -8 -315 20
-398 45 -135 115 -228 226 -300 196 -128 496 -154 819 -72 l70 18 3 357 2 357
-270 0 -270 0 0 -105 0 -105 140 0 140 0 0 -169 c0 -122 -3 -172 -12 -177 -7
-4 -60 -10 -119 -12 -126 -5 -214 16 -295 70 -180 122 -245 400 -143 617 56
122 130 187 259 232 115 39 338 27 466 -27 18 -8 35 -14 38 -14 4 0 8 26 21
162 l5 56 -33 11 c-126 40 -432 55 -557 27z"/>
<path d="M9733 10691 l-53 -14 0 -93 0 -94 -75 0 -75 0 0 -50 0 -50 75 0 74 0
3 -387 c3 -371 4 -390 24 -428 39 -75 110 -103 224 -90 l60 7 0 59 c0 56 -1
59 -19 49 -11 -5 -42 -10 -69 -10 -67 0 -98 31 -107 103 -3 29 -5 196 -3 372
l3 320 98 3 97 3 0 49 0 50 -100 0 -99 0 -3 108 -3 107 -52 -14z"/>
<path d="M14035 10487 c-82 -32 -137 -85 -175 -169 l-20 -43 0 108 0 107 -115
0 -115 0 0 -505 0 -505 124 0 123 0 6 273 c5 287 14 353 58 423 41 67 127 94
227 72 l33 -8 -3 128 -3 127 -55 2 c-30 1 -69 -3 -85 -10z"/>
<path d="M14620 10493 c-53 -9 -149 -45 -191 -72 -143 -91 -219 -243 -219
-436 0 -239 116 -408 330 -481 82 -28 282 -26 364 4 205 75 320 248 319 477
-1 260 -147 450 -382 500 -68 14 -164 18 -221 8z m222 -229 c87 -61 124 -155
115 -293 -12 -193 -93 -291 -242 -291 -109 0 -174 48 -215 156 -53 144 -30
314 55 399 52 53 88 65 177 62 56 -2 74 -7 110 -33z"/>
<path d="M16949 10487 c-64 -18 -132 -60 -168 -104 l-31 -38 0 73 0 72 -125 0
-125 0 0 -710 0 -710 130 0 130 0 0 270 0 271 38 -37 c146 -144 447 -117 562
51 74 108 107 249 97 418 -13 220 -100 373 -244 427 -71 27 -199 35 -264 17z
m121 -207 c79 -40 123 -146 123 -290 -1 -196 -80 -310 -213 -310 -69 0 -120
28 -159 86 -44 67 -56 114 -56 229 0 88 4 107 29 162 44 96 105 142 189 143
29 0 63 -8 87 -20z"/>
<path d="M6990 10481 c-76 -25 -150 -83 -193 -152 -99 -160 -95 -520 7 -693
69 -116 207 -174 353 -147 147 27 232 116 280 291 25 91 24 329 -1 419 -36
133 -103 223 -194 263 -51 23 -205 34 -252 19z m199 -116 c106 -54 159 -207
148 -425 -12 -244 -101 -360 -266 -348 -150 11 -225 140 -225 393 0 172 32
282 102 348 57 55 169 70 241 32z"/>
<path d="M7860 10481 c-105 -34 -175 -121 -216 -267 -25 -91 -31 -323 -10
-418 32 -142 103 -247 195 -290 34 -15 65 -21 121 -20 102 0 155 28 225 119
14 18 15 9 13 -110 -4 -139 -21 -199 -71 -253 -70 -75 -198 -88 -352 -34 -49
17 -91 29 -94 27 -2 -3 -6 -29 -9 -59 l-4 -54 54 -16 c108 -31 163 -38 253
-33 178 10 270 84 323 260 13 44 16 143 19 605 l4 552 -50 0 -50 0 -3 -75 -3
-75 -35 47 c-50 67 -114 97 -210 100 -41 1 -86 -1 -100 -6z m166 -106 c118
-35 174 -159 174 -385 0 -271 -75 -400 -231 -400 -101 0 -168 57 -206 175 -24
76 -29 320 -9 410 27 113 71 175 143 201 49 17 69 17 129 -1z"/>
<path d="M8570 9985 l0 -505 55 0 55 0 0 505 0 505 -55 0 -55 0 0 -505z"/>
<path d="M9089 10474 c-61 -18 -142 -91 -164 -146 -10 -26 -17 -70 -17 -110 0
-127 41 -175 231 -274 95 -50 146 -91 162 -132 25 -66 -4 -148 -68 -192 -53
-36 -172 -35 -261 2 -34 14 -64 23 -66 19 -2 -3 -5 -31 -7 -60 l-4 -55 60 -19
c40 -13 93 -19 160 -20 89 -2 106 1 155 24 103 49 150 120 158 236 4 64 1 79
-23 128 -31 64 -62 89 -207 171 -123 69 -155 96 -167 142 -24 88 40 183 131
197 41 6 122 -7 179 -30 17 -6 29 28 29 85 0 26 -3 29 -63 39 -84 15 -161 13
-218 -5z"/>
<path d="M10180 9985 l0 -505 55 0 55 0 0 505 0 505 -55 0 -55 0 0 -505z"/>
<path d="M10778 10471 c-97 -32 -161 -90 -212 -191 -42 -84 -51 -136 -51 -300
1 -144 3 -160 28 -223 49 -126 105 -188 217 -241 56 -26 76 -30 150 -30 47 0
109 6 138 13 l52 13 0 64 c0 35 -2 64 -3 64 -2 0 -17 -7 -34 -15 -74 -37 -179
-37 -258 1 -52 25 -119 103 -145 170 -32 81 -40 282 -15 366 24 83 70 145 135
182 50 28 63 31 140 31 66 0 94 -5 127 -21 l41 -21 4 64 3 63 -35 11 c-19 6
-78 13 -130 15 -74 3 -108 0 -152 -15z"/>
<path d="M11405 10472 c-101 -35 -167 -114 -181 -219 -17 -130 33 -202 205
-293 168 -89 211 -140 196 -231 -9 -51 -63 -113 -112 -130 -51 -17 -147 -6
-223 24 -35 15 -65 25 -66 24 -1 -1 -4 -29 -6 -61 l-3 -60 60 -19 c40 -13 93
-19 160 -20 85 -1 108 2 152 22 58 26 116 84 141 140 10 22 16 66 16 116 1
107 -26 155 -123 219 -38 25 -71 46 -74 46 -15 0 -146 83 -170 108 -58 61 -41
169 36 220 33 22 51 27 101 26 34 0 83 -8 109 -18 27 -10 50 -16 52 -14 2 2 6
28 10 59 l7 57 -64 11 c-90 15 -165 13 -223 -7z"/>
<path d="M15390 10127 c0 -400 3 -427 62 -519 71 -113 238 -158 390 -107 69
23 105 45 161 98 l37 35 0 -77 0 -77 120 0 120 0 0 505 0 505 -124 0 -124 0
-5 -297 c-4 -305 -7 -332 -49 -408 -72 -133 -251 -144 -313 -20 -19 37 -20 63
-23 383 l-3 342 -125 0 -124 0 0 -363z"/>
</g>
</svg>
